<svg width="22" height="23" viewBox="0 0 22 23" fill="none" xmlns="http://www.w3.org/2000/svg">
<path fill-rule="evenodd" clip-rule="evenodd" d="M6.6 1.7C3.61766 1.7 1.2 4.11766 1.2 7.1V15.9C1.2 18.8823 3.61766 21.3 6.6 21.3H15.4C18.3823 21.3 20.8 18.8823 20.8 15.9V7.1C20.8 4.11766 18.3823 1.7 15.4 1.7H6.6ZM0 7.1C0 3.45492 2.95492 0.5 6.6 0.5H15.4C19.0451 0.5 22 3.45492 22 7.1V15.9C22 19.5451 19.0451 22.5 15.4 22.5H6.6C2.95492 22.5 0 19.5451 0 15.9V7.1ZM11 7.2C8.62518 7.2 6.7 9.12518 6.7 11.5C6.7 13.8748 8.62518 15.8 11 15.8C13.3748 15.8 15.3 13.8748 15.3 11.5C15.3 9.12518 13.3748 7.2 11 7.2ZM5.5 11.5C5.5 8.46243 7.96243 6 11 6C14.0376 6 16.5 8.46243 16.5 11.5C16.5 14.5376 14.0376 17 11 17C7.96243 17 5.5 14.5376 5.5 11.5ZM16.6 3.89999C17.2075 3.89999 17.7 4.39247 17.7 4.99999C17.7 5.6075 17.2075 6.09999 16.6 6.09999C15.9925 6.09999 15.5 5.6075 15.5 4.99999C15.5 4.39247 15.9925 3.89999 16.6 3.89999Z" fill="black"/>
</svg>
