<svg width="96" height="28" viewBox="0 0 96 28" fill="none" xmlns="http://www.w3.org/2000/svg">
<path d="M5.70955 0.846162C3.77975 1.65395 1.65826 3.93604 0.988223 6.80057C0.139675 10.43 3.67088 11.9648 3.96051 11.4616C4.3014 10.8703 3.32776 10.6703 3.12734 8.78717C2.86832 6.35495 3.99906 3.63721 5.42213 2.44475C5.68665 2.2232 5.67407 2.53156 5.67407 3.10192C5.67407 4.12188 5.61771 13.2781 5.61771 15.189C5.61771 17.7747 5.51091 18.5912 5.3191 19.398C5.12476 20.2156 4.81232 20.7681 5.04907 20.9809C5.31358 21.2189 6.44295 20.6527 7.09676 19.7402C7.88077 18.6458 8.15521 17.3315 8.20449 15.9041C8.264 14.1835 8.26146 11.4532 8.264 9.8959C8.26638 8.4676 8.28806 4.28523 8.23896 1.77095C8.22693 1.15425 6.51659 0.507233 5.70945 0.845412L5.70955 0.846162ZM74.2365 12.947C74.1743 14.2912 73.8767 15.3419 73.5074 16.0831C72.7925 17.5178 71.309 17.9633 70.6791 15.9008C70.3358 14.7765 70.3198 12.8989 70.5666 11.33C70.8178 9.73169 71.5193 8.52463 72.6808 8.63348C73.8264 8.74109 74.3627 10.2174 74.2365 12.947ZM54.9228 21.287C54.9072 23.5205 54.5557 25.4789 53.8019 26.0477C52.7327 26.8542 51.2957 26.2492 51.5933 24.6194C51.8565 23.1771 53.1017 21.7042 54.9258 19.9046C54.9258 19.9046 54.9296 20.315 54.9228 21.287ZM54.6308 12.934C54.5654 14.1583 54.248 15.3883 53.9017 16.0832C53.1869 17.518 51.6926 17.9665 51.0733 15.901C50.6499 14.4897 50.7513 12.6632 50.9608 11.5123C51.2327 10.0191 51.8916 8.63381 53.075 8.63381C54.2256 8.63381 54.793 9.89601 54.6308 12.934ZM43.4423 12.9153C43.3721 14.212 43.1192 15.2959 42.7132 16.0832C41.9788 17.5081 40.5257 17.96 39.8849 15.901C39.4229 14.4163 39.5802 12.3918 39.7723 11.2982C40.0575 9.67535 40.7717 8.52478 41.8865 8.63381C43.0317 8.74569 43.5884 10.2174 43.4423 12.9153ZM94.7165 14.4299C94.4366 14.4299 94.3088 14.7184 94.2032 15.2042C93.8366 16.893 93.4512 17.2744 92.9543 17.2744C92.3992 17.2744 91.9004 16.4381 91.7722 14.7641C91.6714 13.4477 91.6876 11.0243 91.8165 8.61366C91.8428 8.11837 91.7062 7.6283 90.3777 7.1457C89.8061 6.93811 88.9751 6.63246 88.5614 7.63116C87.3924 10.4527 86.935 12.6927 86.8274 13.6027C86.8218 13.6498 86.7641 13.6594 86.7539 13.5494C86.6854 12.8206 86.5321 11.4961 86.513 8.7135C86.5094 8.17058 86.3943 7.70845 85.7951 7.3301C85.4063 7.0846 84.2255 6.6504 83.8004 7.16696C83.432 7.58942 83.0055 8.72634 82.5622 10.074C82.202 11.1694 81.9511 11.9103 81.9511 11.9103C81.9511 11.9103 81.9558 8.95488 81.9601 7.83382C81.962 7.41089 81.6719 7.26996 81.5845 7.24441C81.1907 7.13014 80.415 6.93923 80.0857 6.93923C79.6794 6.93923 79.5799 7.16633 79.5799 7.49722C79.5799 7.54054 79.5158 11.3884 79.5158 14.079C79.5158 14.1958 79.5158 14.3233 79.517 14.4588C79.2923 15.6954 78.5635 17.3741 77.771 17.3741C76.9775 17.3741 76.6031 16.6723 76.6031 13.4647C76.6031 11.5935 76.6593 10.7798 76.6869 9.42644C76.7029 8.6469 76.7339 8.04828 76.7321 7.91244C76.7263 7.49585 76.006 7.28589 75.6708 7.20829C75.334 7.13004 75.0414 7.09973 74.8128 7.11275C74.4894 7.131 74.2606 7.34319 74.2606 7.63503C74.2606 7.79151 74.2623 8.08907 74.2623 8.08907C73.8458 7.43444 73.1757 6.9788 72.7299 6.84677C71.5292 6.49017 70.2763 6.80614 69.3312 8.12859C68.5801 9.17934 68.1273 10.3694 67.9491 12.0793C67.8188 13.3293 67.8614 14.5969 68.0929 15.6689C67.8131 16.8785 67.2937 17.3741 66.7249 17.3741C65.8992 17.3741 65.3006 16.0263 65.3701 13.6954C65.416 12.1623 65.7227 11.0864 66.0581 9.5299C66.2011 8.86638 66.0849 8.51898 65.7935 8.18603C65.5263 7.8807 64.9569 7.7247 64.1383 7.91657C63.5552 8.05336 62.7216 8.20047 61.9589 8.31347C61.9589 8.31347 62.0049 8.12985 62.0426 7.80611C62.241 6.10834 60.3961 6.24609 59.8075 6.78836C59.4562 7.11211 59.217 7.49395 59.1262 8.18048C58.9823 9.26996 59.8708 9.78383 59.8708 9.78383C59.5793 11.1183 58.8647 12.8616 58.1269 14.122C57.7317 14.7973 57.4294 15.2977 57.0392 15.8296C57.0377 15.6316 57.0367 15.4335 57.0359 15.2364C57.027 12.4307 57.0644 10.2226 57.0809 9.4267C57.0969 8.64717 57.1281 8.06442 57.1264 7.92858C57.122 7.62388 56.9441 7.50882 56.574 7.36313C56.2467 7.23427 55.8598 7.14508 55.4585 7.11397C54.9519 7.07446 54.6467 7.34314 54.6546 7.66085C54.6562 7.72084 54.6562 8.08919 54.6562 8.08919C54.2396 7.43454 53.5696 6.97892 53.1238 6.84688C51.9231 6.49044 50.6701 6.80641 49.7251 8.1287C48.9741 9.17945 48.4823 10.6539 48.343 12.0664C48.2131 13.3827 48.2371 14.5014 48.4141 15.4438C48.2231 16.3874 47.6742 17.3742 47.0535 17.3742C46.26 17.3742 45.8085 16.6724 45.8085 13.4648C45.8085 11.5936 45.8647 10.7799 45.8923 9.4267C45.9083 8.64717 45.9393 8.0484 45.9376 7.91271C45.9317 7.49613 45.2113 7.28616 44.8762 7.2084C44.5254 7.12731 44.2226 7.09747 43.9901 7.1146C43.6834 7.13746 43.4677 7.41217 43.4677 7.61705V8.08919C43.0511 7.43454 42.3811 6.97892 41.9353 6.84688C40.7346 6.49044 39.4886 6.8115 38.5366 8.1287C37.9158 8.98758 37.4132 9.93978 37.1545 12.0476C37.0797 12.6568 37.0467 13.2272 37.051 13.7603C36.8034 15.2744 35.71 17.0194 34.8156 17.0194C34.2922 17.0194 33.7937 16.0042 33.7937 13.8406C33.7937 10.9586 33.9721 6.85529 34.0022 6.45982C34.0022 6.45982 35.1323 6.44062 35.3512 6.43807C35.9149 6.43188 36.4254 6.44521 37.1762 6.40681C37.5528 6.3876 37.9156 5.03611 37.5269 4.86885C37.3508 4.79315 36.1058 4.72682 35.6122 4.71634C35.1972 4.70694 34.0419 4.62144 34.0419 4.62144C34.0419 4.62144 34.1455 1.89783 34.1697 1.61011C34.1901 1.37032 33.8799 1.24685 33.702 1.17194C33.2694 0.988959 32.8823 0.901352 32.4235 0.806769C31.7896 0.676007 31.5021 0.803912 31.4459 1.33889C31.3613 2.1508 31.3175 4.52891 31.3175 4.52891C30.8524 4.52891 29.2635 4.43798 28.7982 4.43798C28.3659 4.43798 27.8993 6.29715 28.4969 6.32C29.1846 6.34666 30.3829 6.36967 31.1774 6.39364C31.1774 6.39364 31.142 10.5646 31.142 11.8523C31.142 11.9893 31.1432 12.1212 31.1434 12.2492C30.7062 14.5281 29.1662 15.7592 29.1662 15.7592C29.4969 14.2515 28.8213 13.1194 27.6044 12.161C27.1561 11.8078 26.271 11.1392 25.2807 10.4065C25.2807 10.4065 25.8543 9.84126 26.3629 8.70402C26.7233 7.89846 26.7389 6.97657 25.8543 6.77328C24.3926 6.43715 23.1875 7.51059 22.828 8.65657C22.5495 9.54433 22.6981 10.2031 23.2437 10.8874C23.2835 10.9374 23.3267 10.9885 23.3713 11.0399C23.0413 11.6759 22.5881 12.532 22.2042 13.196C21.1387 15.0395 20.3337 16.4976 19.7255 16.4976C19.2392 16.4976 19.2457 15.0172 19.2457 13.6312C19.2457 12.4363 19.3339 10.6398 19.4044 8.77988C19.4277 8.16476 19.1202 7.81434 18.6046 7.49695C18.2913 7.30413 17.6227 6.925 17.2355 6.925C16.6559 6.925 14.9837 7.00386 13.4037 11.5743C13.2045 12.1503 12.8134 13.2 12.8134 13.2L12.847 7.70389C12.847 7.57503 12.7784 7.45045 12.6212 7.36522C12.355 7.22065 11.6439 6.925 11.0116 6.925C10.7103 6.925 10.5599 7.06513 10.5599 7.34444L10.5048 15.9431C10.5048 16.5964 10.5218 17.3586 10.5864 17.692C10.6508 18.0257 10.755 18.2973 10.8842 18.4588C11.0131 18.6201 11.1623 18.7431 11.4082 18.7938C11.6371 18.8409 12.8904 19.0019 12.9555 18.5229C13.0335 17.9489 13.0365 17.3281 13.6946 15.0126C14.7192 11.4078 16.055 9.64891 16.683 9.02427C16.7927 8.91509 16.9181 8.90858 16.9121 9.08727C16.8853 9.8776 16.791 11.8525 16.7275 13.5302C16.5574 18.0202 17.3742 18.8524 18.5415 18.8524C19.4345 18.8524 20.6933 17.9651 22.0427 15.719C22.884 14.3193 23.7008 12.9469 24.2877 11.9577C24.6966 12.3363 25.1556 12.7437 25.6142 13.179C26.6801 14.1906 27.03 15.1518 26.7978 16.0637C26.6202 16.7608 25.9515 17.4792 24.7612 16.781C24.4143 16.5773 24.2662 16.4199 23.9174 16.1902C23.73 16.0668 23.4439 16.0299 23.2723 16.1592C22.8267 16.4952 22.5718 16.9226 22.4263 17.4517C22.2847 17.9665 22.8003 18.2387 23.3348 18.4767C23.7951 18.6816 24.7842 18.8672 25.4151 18.8884C27.873 18.9706 29.842 17.7016 31.2127 14.4283C31.458 17.2552 32.5023 18.8549 34.3165 18.8549C35.5295 18.8549 36.7456 17.2871 37.2774 15.7447C37.4301 16.3734 37.656 16.9202 37.9479 17.3825C39.3459 19.5975 42.0579 19.1207 43.4202 17.2399C43.8414 16.6587 43.9055 16.4498 43.9055 16.4498C44.1042 18.2258 45.5344 18.8464 46.3533 18.8464C47.2704 18.8464 48.2173 18.4128 48.881 16.9186C48.9588 17.0808 49.0437 17.2356 49.1364 17.3824C50.5344 19.5974 53.2464 19.1207 54.6087 17.2398C54.6729 17.1516 54.7286 17.0715 54.7774 16.9997L54.8174 18.1663C54.8174 18.1663 54.0402 18.8792 53.5631 19.3165C51.4636 21.2428 49.867 22.7043 49.7496 24.4062C49.5988 26.5762 51.3588 27.3828 52.6903 27.4885C54.1043 27.6007 55.3152 26.8196 56.0595 25.7264C56.7141 24.7642 57.1426 22.6933 57.1112 20.648C57.0987 19.829 57.078 18.7876 57.0618 17.6713C57.7998 16.8143 58.6312 15.7312 59.3968 14.4633C60.2311 13.0817 61.1252 11.2262 61.583 9.78218C61.583 9.78218 62.3599 9.78884 63.1889 9.73457C63.4541 9.71727 63.5303 9.77138 63.4812 9.96579C63.422 10.2007 62.4338 14.0123 63.3357 16.5515C63.9531 18.2897 65.3447 18.849 66.1698 18.849C67.1356 18.849 68.0596 18.1196 68.5547 17.0365C68.6144 17.1572 68.6767 17.2741 68.7448 17.382C70.1428 19.5969 72.8453 19.1173 74.2171 17.2393C74.5267 16.8156 74.7024 16.4493 74.7024 16.4493C74.9968 18.2874 76.4262 18.8552 77.2449 18.8552C78.0978 18.8552 78.9072 18.5056 79.5639 16.9517C79.5913 17.6359 79.6345 18.1953 79.7027 18.3717C79.7443 18.4795 79.9866 18.6149 80.1629 18.6803C80.9431 18.9696 81.7388 18.8328 82.0332 18.7733C82.2372 18.732 82.3962 18.5684 82.4179 18.146C82.475 17.0367 82.44 15.1729 82.7763 13.7877C83.3408 11.4631 83.8673 10.5614 84.1171 10.115C84.2569 9.86485 84.4147 9.82359 84.4204 10.0883C84.4322 10.6239 84.4588 12.1968 84.6775 14.31C84.8381 15.8642 85.0526 16.7829 85.2175 17.0736C85.6881 17.9051 86.2692 17.9444 86.7425 17.9444C87.0435 17.9444 87.6731 17.8612 87.6168 17.3321C87.5893 17.0742 87.6374 15.4804 88.1939 13.1902C88.5574 11.6947 89.1633 10.3433 89.3818 9.84929C89.4624 9.6671 89.4999 9.81072 89.4986 9.8387C89.4526 10.8687 89.3493 14.2375 89.7689 16.08C90.3377 18.5761 91.9831 18.8554 92.5564 18.8554C93.7805 18.8554 94.7816 17.9243 95.1188 15.4743C95.2001 14.8847 95.0798 14.4294 94.7193 14.4294" fill="#262626"/>
</svg>
