<svg width="23" height="20" viewBox="0 0 23 20" fill="none" xmlns="http://www.w3.org/2000/svg">
<path fill-rule="evenodd" clip-rule="evenodd" d="M7 3.5C7 2.11929 8.11929 1 9.5 1H13.5C14.8807 1 16 2.11929 16 3.5V4H16.5H20.5C21.3284 4 22 4.67157 22 5.5V17.5C22 18.3284 21.3284 19 20.5 19H2.5C1.67157 19 1 18.3284 1 17.5V5.5C1 4.67157 1.67157 4 2.5 4H6.5H7V3.5ZM9.5 0C7.73676 0 6.27806 1.30385 6.03544 3H2.5C1.11929 3 0 4.11929 0 5.5V17.5C0 18.8807 1.11929 20 2.5 20H20.5C21.8807 20 23 18.8807 23 17.5V5.5C23 4.11929 21.8807 3 20.5 3H16.9646C16.7219 1.30385 15.2632 0 13.5 0H9.5ZM7 10.5C7 8.01472 9.01472 6 11.5 6C13.9853 6 16 8.01472 16 10.5C16 12.9853 13.9853 15 11.5 15C9.01472 15 7 12.9853 7 10.5ZM11.5 5C8.46243 5 6 7.46243 6 10.5C6 13.5376 8.46243 16 11.5 16C14.5376 16 17 13.5376 17 10.5C17 7.46243 14.5376 5 11.5 5Z" fill="black"/>
</svg>
