<svg width="21" height="21" viewBox="0 0 21 21" fill="none" xmlns="http://www.w3.org/2000/svg">
<mask id="path-1-inside-1" fill="white">
<path fill-rule="evenodd" clip-rule="evenodd" d="M18.6646 14.9958C19.5139 13.5259 20 11.8197 20 10C20 4.47715 15.5228 0 10 0C4.47715 0 0 4.47715 0 10C0 15.5228 4.47715 20 10 20C11.8316 20 13.5481 19.5076 15.0245 18.648L20.46 20.4897L18.6646 14.9958Z"/>
</mask>
<path d="M18.6646 14.9958L17.7987 14.4955L17.5754 14.8821L17.7141 15.3065L18.6646 14.9958ZM15.0245 18.648L15.3454 17.7008L14.9145 17.5548L14.5213 17.7838L15.0245 18.648ZM20.46 20.4897L20.1391 21.4368L22.0311 22.0779L21.4106 20.1791L20.46 20.4897ZM19 10C19 11.6394 18.5626 13.1736 17.7987 14.4955L19.5304 15.4961C20.4653 13.8782 21 12 21 10H19ZM10 1C14.9706 1 19 5.02944 19 10H21C21 3.92487 16.0751 -1 10 -1V1ZM1 10C1 5.02944 5.02944 1 10 1V-1C3.92487 -1 -1 3.92487 -1 10H1ZM10 19C5.02944 19 1 14.9706 1 10H-1C-1 16.0751 3.92487 21 10 21V19ZM14.5213 17.7838C13.1936 18.5569 11.6501 19 10 19V21C12.0131 21 13.9027 20.4583 15.5277 19.5121L14.5213 17.7838ZM20.781 19.5426L15.3454 17.7008L14.7036 19.5951L20.1391 21.4368L20.781 19.5426ZM17.7141 15.3065L19.5095 20.8004L21.4106 20.1791L19.6151 14.6852L17.7141 15.3065Z" fill="black" mask="url(#path-1-inside-1)"/>
</svg>
