<svg width="21" height="19" viewBox="0 0 21 19" fill="none" xmlns="http://www.w3.org/2000/svg">
<path d="M10.3045 2.94333L10.6793 3.36778L11.0541 2.94333L11.6644 2.25219C13.4374 0.244354 16.7022 -0.0933632 18.9374 1.52669C19.9971 2.29471 20.4472 3.47394 20.4956 4.71964C20.5444 5.97394 20.1801 7.23468 19.6847 8.05878C16.9189 12.6592 14.7874 14.9679 10.6668 18.3634C8.48116 16.7085 6.89751 15.5015 5.54148 14.1483C4.13212 12.7419 2.96108 11.1687 1.64392 8.7601C0.161811 6.04989 0.278957 3.07934 2.4212 1.52669C4.65643 -0.0933642 7.92125 0.244355 9.69422 2.25219L10.3045 2.94333Z" stroke="black" stroke-linecap="round"/>
</svg>
