<svg width="23" height="22" viewBox="0 0 23 22" fill="none" xmlns="http://www.w3.org/2000/svg">
<path fill-rule="evenodd" clip-rule="evenodd" d="M2.09835 9.83805C2.09835 5.29375 5.79375 1.59938 10.337 1.59938C14.8793 1.59938 18.5747 5.29375 18.5747 9.83805C18.5747 14.3824 14.8793 18.0767 10.337 18.0767C5.79375 18.0767 2.09835 14.3824 2.09835 9.83805ZM17.3049 16.0319C18.7748 14.3803 19.673 12.2144 19.673 9.83805C19.673 4.68914 15.4839 0.5 10.337 0.5C5.19017 0.5 1 4.68914 1 9.83805C1 14.987 5.19017 19.1761 10.337 19.1761C12.7134 19.1761 14.8793 18.2738 16.5278 16.808L21.0597 21.3399C21.1685 21.4466 21.3092 21.5 21.4498 21.5C21.5894 21.5 21.73 21.4466 21.8368 21.3399C22.0513 21.1253 22.0513 20.7784 21.8368 20.5638L17.3049 16.0319Z" fill="black" stroke="black" stroke-width="0.2"/>
</svg>
